<?xml version="1.0" encoding="UTF-8"?>
<svg width="40px" height="41px" viewBox="0 0 40 41" version="1.1" xmlns="http://www.w3.org/2000/svg" xmlns:xlink="http://www.w3.org/1999/xlink">
    <!-- Generator: Sketch 61.2 (89653) - https://sketch.com -->
    <title>编组</title>
    <desc>Created with Sketch.</desc>
    <defs>
        <polygon id="path-1" points="0 0.128710714 39.9054113 0.128710714 39.9054113 40.9998536 0 40.9998536"></polygon>
    </defs>
    <g id="页面-1" stroke="none" stroke-width="1" fill="none" fill-rule="evenodd">
        <g id="登录页面" transform="translate(-32.000000, -20.000000)">
            <g id="编组" transform="translate(32.000000, 20.000000)">
                <g>
                    <mask id="mask-2" fill="white">
                        <use xlink:href="#path-1"></use>
                    </mask>
                    <g id="Clip-2"></g>
                    <path d="M33.9501443,24.4644071 C32.2654401,30.5990321 26.7134921,35.1141571 20.138456,35.1141571 C12.2322511,35.1141571 5.80007215,28.5871036 5.80007215,20.5642821 C5.80007215,12.5407286 12.2322511,6.013675 20.138456,6.013675 C26.7134921,6.013675 32.2654401,10.5295321 33.9501443,16.6641571 L39.9054113,16.6641571 C38.1059885,7.25538929 29.9284993,0.128710714 20.138456,0.128710714 C9.03383838,0.128710714 -7.21500721e-05,9.29587143 -7.21500721e-05,20.5642821 C-7.21500721e-05,31.8326929 9.03383838,40.9998536 20.138456,40.9998536 C29.9284993,40.9998536 38.1059885,33.873175 39.9054113,24.4644071 L33.9501443,24.4644071 Z" id="Fill-1" fill="#FFFFFF" mask="url(#mask-2)"></path>
                </g>
                <path d="M20.0536802,12 C16.4920151,12.0087351 13.4282637,14.1238768 12.0043172,17.1699712 L15.7185222,17.1699712 C17.7519092,17.1699712 19.4204953,18.8040361 19.5075582,20.8335563 C19.5118754,20.8887024 19.5241073,20.940946 19.5248269,20.9960921 C19.5248269,21.0548662 19.5118754,21.1107378 19.5075582,21.1680607 C19.4190562,23.1968554 17.7511896,24.8301947 15.7185222,24.8301947 L12,24.8301947 C13.5707303,28.1926533 17.1424687,30.4151847 21.1646318,29.9348335 C25.2328448,29.4486774 28.5031009,26.1166942 28.9456108,22.0090382 C29.5305873,16.5756998 25.3191882,11.9869669 20.0536802,12" id="Fill-3" fill="#FFFFFF"></path>
            </g>
        </g>
    </g>
</svg>